Coordinates
version=1
nRows=22
nColumns=24
inDegrees=yes

Units are S.I. units (second, meters, Newtons, ...)
Angles are in degrees.

endheader
time	pelvis_tilt	pelvis_list	pelvis_rotation	pelvis_tx	pelvis_ty	pelvis_tz	hip_flexion_r	hip_adduction_r	hip_rotation_r	knee_angle_r	ankle_angle_r	subtalar_angle_r	mtp_angle_r	hip_flexion_l	hip_adduction_l	hip_rotation_l	knee_angle_l	ankle_angle_l	subtalar_angle_l	mtp_angle_l	lumbar_extension	lumbar_bending	lumbar_rotation
      5.22500000	     -2.07711354	      0.12459727	     -2.41368734	      1.29055550	      1.03529140	     -0.22992341	     -2.42227684	      4.83892577	     13.82662932	     -6.59763685	     13.33741519	    -16.32775464	      0.00000000	     27.24181053	     -4.80362794	    -15.52217994	    -51.63646332	      6.77020115	     -6.16403300	      0.00000000	    -12.09138141	     -2.14453560	      2.28869239
      5.23000000	     -2.12515606	      0.16600025	     -2.52599981	      1.29597060	      1.03501295	     -0.23001971	     -2.76983286	      4.75754601	     13.95141327	     -6.44865852	     13.40384830	    -16.38686565	      0.00000000	     27.38394457	     -4.67061013	    -15.58177008	    -50.11908003	      7.21202887	     -5.68789723	      0.00000000	    -12.07937694	     -2.22182842	      2.42992896
      5.23500000	     -2.15396730	      0.19355625	     -2.67265405	      1.30139274	      1.03473478	     -0.23009012	     -3.12681612	      4.68794608	     14.08530149	     -6.32150650	     13.46610592	    -16.42977630	      0.00000000	     27.46618837	     -4.56499229	    -15.67824225	    -48.53373559	      7.59883348	     -5.22381750	      0.00000000	    -12.09272324	     -2.28990001	      2.63585689
      5.24000000	     -2.16120212	      0.21172893	     -2.82051919	      1.30684819	      1.03444757	     -0.23017258	     -3.50529251	      4.62410447	     14.22302270	     -6.20254432	     13.53483391	    -16.46324156	      0.00000000	     27.49123669	     -4.46514235	    -15.78283116	    -46.88237944	      7.93311535	     -4.78697648	      0.00000000	    -12.13274322	     -2.34111699	      2.84155372
      5.24500000	     -2.14518953	      0.21506221	     -2.96429305	      1.31233344	      1.03415250	     -0.23029055	     -3.90472304	      4.57161997	     14.34829958	     -6.09551839	     13.60955150	    -16.48436723	      0.00000000	     27.45793598	     -4.36760428	    -15.87715310	    -45.16398793	      8.21553383	     -4.38904566	      0.00000000	    -12.20005428	     -2.37600223	      3.04893639
      5.25000000	     -2.15723971	      0.19472327	     -3.07485178	      1.31785104	      1.03376891	     -0.23048711	     -4.27337267	      4.54299244	     14.42936657	     -5.99570355	     13.68937030	    -16.48052558	      0.00000000	     27.43351601	     -4.27402570	    -15.93384438	    -43.39709229	      8.44969278	     -4.00873038	      0.00000000	    -12.23381160	     -2.36390508	      3.21640852
      5.25500000	     -2.21384314	      0.14300586	     -3.16006380	      1.32335616	      1.03326632	     -0.23070249	     -4.57685623	      4.55793117	     14.46019031	     -5.93366985	     13.78104438	    -16.48432927	      0.00000000	     27.43668109	     -4.18901432	    -15.91076569	    -41.58232742	      8.64368456	     -3.64572943	      0.00000000	    -12.22425662	     -2.32756933	      3.39366722
      5.26000000	     -2.06356148	      0.11609277	     -3.33105184	      1.32900519	      1.03304749	     -0.23089598	     -5.12357815	      4.50916434	     14.59383271	     -5.84241013	     13.91119199	    -16.39580967	      0.00000000	     27.14262750	     -4.09665649	    -16.03541686	    -39.65685926	      8.77132524	     -3.40947573	      0.00000000	    -12.43820386	     -2.32471386	      3.61666645
      5.26500000	     -2.12750501	      0.02863595	     -3.37784983	      1.33463236	      1.03245454	     -0.23125000	     -5.43351074	      4.55099341	     14.62794009	     -5.77528746	     13.99703326	    -16.36711127	      0.00000000	     27.09720602	     -4.01466400	    -15.95481024	    -37.74285184	      8.87150549	     -3.06137953	      0.00000000	    -12.40815491	     -2.21560789	      3.72302787
      5.27000000	     -2.02059632	     -0.02753290	     -3.50491013	      1.34036545	      1.03209146	     -0.23158352	     -5.93062416	      4.53092934	     14.69743082	     -5.70404431	     14.13456599	    -16.25080297	      0.00000000	     26.79894607	     -3.91075873	    -15.99406616	    -35.72212694	      8.90446058	     -2.85579644	      0.00000000	    -12.56996848	     -2.15339792	      3.90040533
      5.27500000	     -1.96393154	     -0.13018519	     -3.57409556	      1.34609369	      1.03160461	     -0.23197779	     -6.37163626	      4.57066279	     14.73274391	     -5.64630951	     14.24324696	    -16.16125452	      0.00000000	     26.55037228	     -3.82372492	    -15.90939242	    -33.68915848	      8.89487063	     -2.60785297	      0.00000000	    -12.67725061	     -2.03105687	      4.02602187
      5.28000000	     -1.91479960	     -0.24828968	     -3.65720206	      1.35186043	      1.03107964	     -0.23239027	     -6.80005483	      4.62318500	     14.77114949	     -5.60506689	     14.35672057	    -16.05185684	      0.00000000	     26.27950159	     -3.74898706	    -15.80659987	    -31.61454830	      8.83499510	     -2.38475272	      0.00000000	    -12.77470775	     -1.89040001	      4.16214160
      5.28500000	     -1.87783478	     -0.37181804	     -3.72337582	      1.35767188	      1.03050280	     -0.23287529	     -7.21552882	      4.67903571	     14.80621554	     -5.57250665	     14.47495602	    -15.93344088	      0.00000000	     25.99942920	     -3.66388755	    -15.65407801	    -29.50969797	      8.73196314	     -2.16052520	      0.00000000	    -12.85569953	     -1.72781115	      4.27689391
      5.29000000	     -1.85339390	     -0.51193875	     -3.78555118	      1.36350196	      1.02988362	     -0.23339430	     -7.61329782	      4.75045308	     14.85941367	     -5.55802212	     14.59592810	    -15.79734597	      0.00000000	     25.71272814	     -3.58644564	    -15.43757249	    -27.38271819	      8.57165410	     -1.94583710	      0.00000000	    -12.92534491	     -1.54048827	      4.37906313
      5.29500000	     -1.79048105	     -0.65464043	     -3.84158293	      1.36943847	      1.02928248	     -0.23393855	     -8.05519812	      4.82310657	     14.84306742	     -5.54349795	     14.71318520	    -15.64852768	      0.00000000	     25.35360480	     -3.50181598	    -15.18688811	    -25.22581127	      8.40472313	     -1.73881367	      0.00000000	    -13.02388380	     -1.35376458	      4.48288534
      5.30000000	     -1.75400492	     -0.80753184	     -3.89102896	      1.37539595	      1.02862800	     -0.23454056	     -8.46325302	      4.90398193	     14.85049350	     -5.54922390	     14.82658038	    -15.48409478	      0.00000000	     25.00594305	     -3.42065477	    -14.85975785	    -23.06041904	      8.18198872	     -1.54782685	      0.00000000	    -13.09720316	     -1.14005742	      4.57609526
      5.30500000	     -1.69550049	     -0.95615444	     -3.93409664	      1.38143483	      1.02798042	     -0.23514232	     -8.89431246	      4.97984275	     14.82202287	     -5.56399210	     14.95129816	    -15.29106619	      0.00000000	     24.60837808	     -3.33055895	    -14.45391848	    -20.88053282	      7.91596477	     -1.38133819	      0.00000000	    -13.18631004	     -0.93916511	      4.65103513
      5.31000000	     -1.63727105	     -1.10843549	     -3.97230799	      1.38750275	      1.02731244	     -0.23575890	     -9.31876183	      5.05831942	     14.79867549	     -5.59851377	     15.09313830	    -15.06839717	      0.00000000	     24.19295018	     -3.24416466	    -13.94872313	    -18.70269103	      7.58883020	     -1.25758597	      0.00000000	    -13.27449849	     -0.73313867	      4.71140099
      5.31500000	     -1.60269937	     -1.27906539	     -4.01859630	      1.39363966	      1.02660024	     -0.23643707	     -9.71044357	      5.15163498	     14.77519992	     -5.65909473	     15.20766983	    -14.83148698	      0.00000000	     23.77926390	     -3.17759535	    -13.36334721	    -16.52711546	      7.21895037	     -1.25938233	      0.00000000	    -13.32928531	     -0.48574631	      4.79544288
      5.32000000	     -1.54260298	     -1.44240037	     -4.05392189	      1.39984764	      1.02590398	     -0.23708863	    -10.12630389	      5.23815673	     14.71759573	     -5.73366762	     15.34782257	    -14.54709629	      0.00000000	     23.31320264	     -3.10870820	    -12.64821209	    -14.35962258	      6.76818173	     -1.35546145	      0.00000000	    -13.40815245	     -0.26085694	      4.84963304
      5.32500000	     -1.45971883	     -1.59927623	     -4.07256775	      1.40610907	      1.02521376	     -0.23775338	    -10.55835888	      5.31714386	     14.64151816	     -5.83248554	     15.52663210	    -14.20729951	      0.00000000	     22.80194065	     -3.03989780	    -11.80572892	    -12.21419453	      6.24474595	     -1.55766776	      0.00000000	    -13.50934256	     -0.04374605	      4.87039853
      5.33000000	     -1.41838602	     -1.79354384	     -4.13383706	      1.41243939	      1.02447001	     -0.23835729	    -10.93656671	      5.43435997	     14.56893961	     -5.95903226	     15.64456559	    -13.87595925	      0.00000000	     22.30898953	     -3.04340965	    -10.90912056	    -10.10409112	      5.66661481	     -1.94360626	      0.00000000	    -13.55098489	      0.21481630	      4.96073715
